<?xml version="1.0" standalone="no"?>
<!DOCTYPE svg PUBLIC "-//W3C//DTD SVG 20010904//EN"
 "http://www.w3.org/TR/2001/REC-SVG-20010904/DTD/svg10.dtd">
<svg version="1.0" xmlns="http://www.w3.org/2000/svg"
 width="375.000000pt" height="524.000000pt" viewBox="0 0 375.000000 524.000000"
 preserveAspectRatio="xMidYMid meet">
<metadata>
Created by potrace 1.16, written by Peter Selinger 2001-2019
</metadata>
<g transform="translate(0.000000,524.000000) scale(0.100000,-0.100000)"
fill="#000000" stroke="none">
<path d="M111 5145 l-111 -95 0 -136 c0 -113 2 -134 14 -127 8 4 97 78 198
164 100 87 218 187 261 223 l78 66 -164 0 -164 0 -112 -95z"/>
<path d="M830 5194 c-246 -206 -630 -538 -630 -546 0 -6 59 -8 158 -6 l158 5
210 179 c115 99 271 233 347 297 l138 117 -163 0 -163 0 -55 -46z"/>
<path d="M1489 5192 c-30 -26 -140 -119 -244 -207 -308 -262 -385 -328 -385
-335 0 -4 71 -6 157 -4 152 2 157 3 189 28 24 19 607 514 663 562 2 2 -70 4
-160 4 l-164 0 -56 -48z"/>
<path d="M2174 5212 c-17 -15 -113 -97 -214 -182 -101 -85 -188 -160 -194
-165 -6 -6 -64 -55 -128 -109 -65 -55 -118 -102 -118 -105 0 -3 73 -4 162 -3
l162 4 71 61 c39 34 109 94 155 132 46 39 107 90 135 115 53 46 260 222 305
259 l25 20 -165 0 -165 0 -31 -27z"/>
<path d="M2765 5154 c-55 -48 -209 -179 -342 -292 -133 -113 -240 -208 -238
-211 3 -2 75 -3 161 -2 l157 2 90 77 c161 137 451 383 501 426 28 22 61 51 75
63 l26 22 -165 0 -165 0 -100 -85z"/>
<path d="M3400 5131 c-69 -59 -222 -190 -340 -290 -118 -101 -216 -186 -218
-190 -1 -3 70 -6 157 -6 l159 1 59 49 c32 28 165 141 296 253 l237 202 0 45 0
45 -112 0 -113 -1 -125 -108z"/>
<path d="M3694 4819 c-101 -88 -167 -144 -180 -152 -33 -19 -7 -23 109 -19 67
2 123 5 125 7 1 1 1 49 0 106 l-3 103 -51 -45z"/>
<path d="M1856 4345 c-58 -22 -102 -60 -133 -113 -37 -62 -39 -165 -6 -227 65
-122 209 -170 330 -110 177 89 177 346 0 436 -52 27 -140 33 -191 14z"/>
<path d="M1025 4107 c-19 -9 -68 -64 -130 -145 -55 -72 -103 -131 -107 -132
-5 0 -59 32 -122 70 -62 39 -118 70 -125 70 -11 0 -38 -47 -30 -53 2 -2 56
-34 120 -72 l116 -68 -19 -34 c-41 -68 4 -143 84 -143 34 0 46 6 74 37 31 34
36 36 50 21 14 -14 13 -19 -15 -58 -17 -24 -36 -60 -41 -81 -6 -23 -10 -164
-10 -346 l1 -307 -83 -69 c-193 -161 -339 -290 -349 -309 -16 -30 -2 -84 32
-118 25 -24 39 -30 75 -30 39 0 51 6 92 44 26 24 133 114 237 201 105 87 197
169 205 184 11 20 16 73 20 220 l5 195 105 -135 105 -134 7 -120 c3 -66 7
-196 7 -288 1 -184 9 -220 56 -251 54 -36 131 -15 163 45 10 19 12 90 7 344
-3 176 -9 328 -11 337 -3 10 -57 84 -120 164 -63 80 -114 151 -114 156 0 11
53 78 62 78 20 0 317 -196 344 -226 19 -22 44 -38 67 -44 36 -8 516 -298 517
-312 0 -4 -20 -26 -45 -49 -38 -36 -46 -51 -56 -102 -11 -55 -15 -60 -48 -73
-61 -24 -66 -29 -67 -71 -1 -22 -10 -53 -20 -69 -10 -16 -19 -30 -19 -31 -1
-2 -25 -7 -54 -13 -38 -7 -75 -26 -141 -72 -90 -63 -109 -87 -67 -82 12 1 383
3 825 3 l803 1 -3 52 -3 53 -80 13 c-43 7 -81 15 -83 17 -2 2 4 55 14 119 10
64 15 118 13 120 -33 32 -234 164 -243 160 -25 -9 -76 53 -98 118 -11 35 -24
67 -28 72 -5 4 -65 5 -135 1 l-127 -8 -24 -52 -23 -53 -63 -7 c-35 -4 -76 -13
-91 -21 -28 -13 -35 -9 -293 153 -239 149 -264 167 -257 187 15 42 15 43 -138
606 -21 80 -44 162 -50 183 -13 47 -69 111 -123 140 -38 20 -57 22 -281 24
-186 3 -247 0 -270 -10z m149 -209 c-11 -13 -49 -57 -84 -98 -35 -41 -69 -81
-76 -89 -13 -14 -54 -7 -54 10 0 5 33 52 73 104 72 94 72 95 116 95 l44 0 -19
-22z m470 -487 c20 -73 36 -135 34 -136 -4 -4 -234 137 -249 152 -8 8 11 37
72 108 l83 97 12 -43 c6 -24 28 -104 48 -178z"/>
<path d="M210 1777 c0 -339 23 -409 155 -469 41 -18 68 -22 145 -23 82 0 103
4 151 26 33 16 68 42 83 62 50 65 56 108 56 374 l0 243 -90 0 -90 0 0 -240 0
-240 -29 -32 c-26 -29 -34 -32 -85 -32 -105 0 -115 29 -116 337 l0 207 -90 0
-90 0 0 -213z"/>
<path d="M912 1643 l3 -348 80 0 80 0 5 210 5 210 108 -200 c60 -110 114 -204
121 -210 7 -5 51 -10 97 -10 l84 0 3 348 2 347 -84 0 -84 0 -4 -72 c-3 -40 -4
-132 -4 -205 1 -73 -2 -129 -6 -125 -3 4 -54 96 -113 205 l-107 197 -94 0 -94
0 2 -347z"/>
<path d="M1612 1643 l3 -348 135 -3 c223 -4 328 23 399 104 52 58 73 117 78
220 10 165 -42 275 -158 339 l-54 30 -203 3 -202 4 2 -349z m359 166 c59 -30
83 -88 77 -185 -8 -123 -53 -164 -180 -164 l-78 0 0 185 0 185 70 0 c52 0 82
-6 111 -21z"/>
<path d="M2322 1643 l3 -348 270 0 270 0 3 83 3 82 -186 0 -185 0 0 60 0 60
165 0 165 0 0 75 0 75 -165 0 -165 0 0 55 0 55 180 0 180 0 0 75 0 75 -270 0
-270 0 2 -347z"/>
<path d="M2966 1974 c-3 -9 -6 -159 -6 -334 0 -276 2 -321 16 -334 11 -12 35
-16 84 -16 89 0 92 6 88 148 l-3 107 69 3 c76 3 121 -10 137 -41 6 -10 14 -58
19 -105 5 -61 12 -89 24 -98 10 -7 47 -11 92 -11 75 1 75 1 70 27 -3 14 -10
65 -16 114 -11 93 -37 158 -69 175 -18 10 -16 13 19 49 45 45 64 104 54 168
-9 62 -40 103 -103 136 l-53 28 -208 0 c-180 0 -209 -2 -214 -16z m375 -153
c16 -13 23 -29 23 -55 0 -60 -20 -71 -127 -71 l-92 0 -3 59 c-5 87 -5 86 92
86 67 0 88 -4 107 -19z"/>
<path d="M280 1172 c-43 -23 -80 -91 -80 -147 1 -110 117 -188 210 -140 37 19
70 62 70 91 0 37 -53 33 -90 -6 -34 -37 -53 -38 -87 -4 -22 22 -25 32 -20 72
3 31 12 52 27 64 30 24 46 23 76 -7 31 -32 94 -36 94 -6 0 27 -39 71 -76 87
-45 19 -83 18 -124 -4z"/>
<path d="M582 1170 c-48 -30 -72 -75 -72 -140 0 -65 24 -110 72 -140 64 -39
154 -15 193 51 27 46 27 132 -1 179 -37 66 -128 89 -192 50z m108 -70 c48 -48
33 -137 -27 -155 -17 -4 -29 1 -48 19 -35 35 -35 97 0 131 29 30 49 31 75 5z"/>
<path d="M1183 1175 c-37 -16 -53 -42 -53 -84 0 -41 26 -65 91 -86 64 -21 80
-32 72 -51 -9 -24 -67 -17 -92 12 -18 20 -28 24 -49 19 -36 -9 -37 -11 -26
-42 32 -91 203 -97 240 -8 28 67 4 102 -91 133 -36 11 -60 25 -60 33 0 20 49
23 65 5 7 -10 28 -16 52 -16 36 0 39 2 32 23 -10 32 -25 48 -61 64 -41 16 -79
16 -120 -2z"/>
<path d="M2343 1175 c-97 -42 -114 -206 -27 -274 77 -60 202 -22 220 67 6 32
6 32 -34 32 -32 0 -42 -4 -47 -21 -9 -26 -50 -42 -75 -29 -27 15 -40 43 -40
87 1 73 59 105 105 59 18 -18 37 -26 62 -26 33 0 35 1 28 28 -18 74 -112 112
-192 77z"/>
<path d="M3032 1170 c-55 -34 -74 -75 -70 -152 3 -61 7 -71 37 -102 40 -41 99
-55 156 -36 47 16 87 74 92 138 12 123 -115 213 -215 152z m125 -98 c33 -79
-28 -158 -86 -114 -46 34 -41 133 6 150 41 13 64 3 80 -36z"/>
<path d="M835 1170 c-3 -5 -5 -72 -4 -150 l1 -140 39 0 39 0 0 88 0 87 47 -87
47 -88 43 0 43 0 0 150 0 150 -40 0 -40 0 0 -87 -1 -88 -45 88 c-46 86 -46 87
-84 87 -22 0 -41 -4 -45 -10z"/>
<path d="M1390 1146 c0 -34 1 -35 42 -38 l42 -3 0 -110 1 -110 40 0 40 0 0
110 0 110 43 3 c41 3 42 4 42 38 l0 34 -125 0 -125 0 0 -34z"/>
<path d="M1670 1030 l0 -150 40 0 40 0 0 55 0 55 34 0 c42 0 66 -29 66 -77 0
-32 1 -33 40 -33 l40 0 -6 48 c-4 26 -13 58 -21 70 -13 21 -13 26 1 41 9 10
16 35 16 59 0 32 -6 45 -26 61 -23 18 -41 21 -125 21 l-99 0 0 -150z m168 51
c-3 -23 -8 -26 -45 -29 -41 -3 -43 -2 -43 26 0 37 2 38 50 34 38 -4 41 -6 38
-31z"/>
<path d="M1961 1060 c4 -119 4 -120 35 -151 39 -39 101 -49 157 -25 54 22 67
60 67 191 l0 105 -40 0 -40 0 0 -104 c0 -97 -2 -106 -22 -120 -29 -20 -34 -20
-58 4 -17 17 -20 33 -20 120 l0 100 -41 0 -41 0 3 -120z"/>
<path d="M2558 1150 c-6 -38 -3 -40 44 -40 l38 0 0 -115 0 -115 40 0 40 0 0
115 0 115 45 0 c45 0 45 0 45 35 l0 35 -124 0 -124 0 -4 -30z"/>
<path d="M2840 1030 l0 -150 40 0 40 0 0 150 0 150 -40 0 -40 0 0 -150z"/>
<path d="M3280 1030 l0 -150 40 0 40 0 0 88 0 87 47 -87 47 -88 43 0 43 0 0
150 0 150 -40 0 -40 0 0 -87 0 -88 -47 88 -47 87 -43 0 -43 0 0 -150z"/>
<path d="M121 488 l-121 -101 0 -139 0 -139 26 20 c86 68 524 446 524 453 0 4
-69 8 -154 8 l-154 0 -121 -102z"/>
<path d="M734 448 c-92 -79 -248 -212 -346 -295 l-179 -153 163 0 163 1 51 42
c28 23 78 65 110 92 129 110 403 343 457 388 31 27 57 53 57 58 0 5 -67 9
-154 9 l-155 0 -167 -142z"/>
<path d="M1348 408 c-117 -100 -270 -231 -340 -291 -71 -60 -128 -111 -128
-113 0 -2 72 -4 159 -4 l160 0 184 158 c101 86 254 216 340 289 86 72 153 134
150 137 -4 3 -75 6 -159 6 l-153 0 -213 -182z"/>
<path d="M2115 497 c-189 -157 -575 -489 -575 -493 0 -2 72 -4 159 -4 l159 0
110 92 c381 323 562 481 562 489 0 5 -66 9 -152 9 l-153 0 -110 -93z"/>
<path d="M2730 459 c-85 -72 -171 -145 -191 -163 -20 -17 -105 -89 -189 -161
l-153 -130 161 -3 162 -2 302 257 c167 142 320 272 340 288 21 17 38 33 38 38
0 4 -71 7 -157 7 l-158 0 -155 -131z"/>
<path d="M3454 512 c-50 -42 -205 -174 -343 -292 l-253 -215 162 -3 162 -3 96
84 c54 45 142 121 197 167 55 46 106 90 113 97 7 6 46 40 87 74 l75 62 0 53 0
54 -102 0 -103 -1 -91 -77z"/>
<path d="M3632 101 l-113 -96 112 -3 c61 -1 113 -1 116 1 2 3 2 47 1 100 l-3
95 -113 -97z"/>
</g>
</svg>
